<svg width="36" height="36" viewBox="0 0 36 36" fill="none" xmlns="http://www.w3.org/2000/svg">
<path d="M24 27C24.7956 27 25.5587 27.3161 26.1213 27.8787C26.6839 28.4413 27 29.2044 27 30C27 30.7956 26.6839 31.5587 26.1213 32.1213C25.5587 32.6839 24.7956 33 24 33C23.2044 33 22.4413 32.6839 21.8787 32.1213C21.3161 31.5587 21 30.7956 21 30C21 29.2044 21.3161 28.4413 21.8787 27.8787C22.4413 27.3161 23.2044 27 24 27ZM24 28.5C23.6022 28.5 23.2206 28.658 22.9393 28.9393C22.658 29.2206 22.5 29.6022 22.5 30C22.5 30.3978 22.658 30.7794 22.9393 31.0607C23.2206 31.342 23.6022 31.5 24 31.5C24.3978 31.5 24.7794 31.342 25.0607 31.0607C25.342 30.7794 25.5 30.3978 25.5 30C25.5 29.6022 25.342 29.2206 25.0607 28.9393C24.7794 28.658 24.3978 28.5 24 28.5ZM10.5 27C11.2956 27 12.0587 27.3161 12.6213 27.8787C13.1839 28.4413 13.5 29.2044 13.5 30C13.5 30.7956 13.1839 31.5587 12.6213 32.1213C12.0587 32.6839 11.2956 33 10.5 33C9.70435 33 8.94129 32.6839 8.37868 32.1213C7.81607 31.5587 7.5 30.7956 7.5 30C7.5 29.2044 7.81607 28.4413 8.37868 27.8787C8.94129 27.3161 9.70435 27 10.5 27ZM10.5 28.5C10.1022 28.5 9.72064 28.658 9.43934 28.9393C9.15804 29.2206 9 29.6022 9 30C9 30.3978 9.15804 30.7794 9.43934 31.0607C9.72064 31.342 10.1022 31.5 10.5 31.5C10.8978 31.5 11.2794 31.342 11.5607 31.0607C11.842 30.7794 12 30.3978 12 30C12 29.6022 11.842 29.2206 11.5607 28.9393C11.2794 28.658 10.8978 28.5 10.5 28.5ZM27 9H6.4095L10.23 18H22.5C22.7332 18.0004 22.9633 17.946 23.1717 17.8413C23.3801 17.7365 23.5611 17.5844 23.7 17.397L28.2 11.397H28.2015C28.3679 11.174 28.4689 10.9092 28.4934 10.6321C28.5179 10.355 28.4649 10.0765 28.3402 9.82784C28.2156 9.57914 28.0242 9.37002 27.7875 9.22382C27.5509 9.07763 27.2782 9.00014 27 9ZM22.5 19.5H10.299L9.15 21.84L9 22.5C9 22.8978 9.15804 23.2794 9.43934 23.5607C9.72064 23.842 10.1022 24 10.5 24H27V25.5H10.5C9.97765 25.5003 9.46428 25.3641 9.0107 25.1051C8.55712 24.846 8.17903 24.473 7.91386 24.023C7.64869 23.5729 7.50561 23.0614 7.4988 22.5391C7.49198 22.0168 7.62166 21.5018 7.875 21.045L8.955 18.834L3.507 6H1.5V4.5H4.5L5.7735 7.5H27C27.5668 7.50005 28.122 7.66068 28.6013 7.96328C29.0806 8.26588 29.4643 8.69807 29.7081 9.20978C29.9519 9.7215 30.0457 10.2918 29.9787 10.8546C29.9117 11.4175 29.6866 11.9498 29.3295 12.39L24.9585 18.219C24.6821 18.6147 24.3143 18.9378 23.8863 19.1608C23.4582 19.3839 22.9827 19.5002 22.5 19.5Z" fill="white"/>
</svg>
