<svg width="20" height="20" viewBox="0 0 20 20" fill="none" xmlns="http://www.w3.org/2000/svg">
<path d="M14.7143 5.71427H15.5714M4.85716 1.42856H15.1429C17.0364 1.42856 18.5714 2.96358 18.5714 4.85713V15.1428C18.5714 17.0364 17.0364 18.5714 15.1429 18.5714H4.85716C2.96361 18.5714 1.42859 17.0364 1.42859 15.1428V4.85713C1.42859 2.96358 2.96361 1.42856 4.85716 1.42856ZM10 13.4286C8.10647 13.4286 6.57145 11.8935 6.57145 9.99999C6.57145 8.10644 8.10647 6.57142 10 6.57142C11.8936 6.57142 13.4286 8.10644 13.4286 9.99999C13.4286 11.8935 11.8936 13.4286 10 13.4286Z" stroke="#253D4E" stroke-width="1.5"/>
</svg>
