<svg width="20" height="18" viewBox="0 0 20 18" fill="none" xmlns="http://www.w3.org/2000/svg">
<path d="M18.545 1.71429L19.2933 1.66468C19.2734 1.36382 19.0752 1.10416 18.7903 1.00554C18.5054 0.906927 18.1891 0.98853 17.9874 1.21269L18.545 1.71429ZM18.0724 5.33744C18.0724 4.92323 17.7366 4.58744 17.3224 4.58744C16.9082 4.58744 16.5724 4.92323 16.5724 5.33744H18.0724ZM10 6.42858V7.17858H10.75V6.42858H10ZM2.65119 1.71429L3.35357 1.45131C3.24892 1.1718 2.9885 0.98095 2.69046 0.965323C2.39241 0.949696 2.11347 1.11227 1.98016 1.3793L2.65119 1.71429ZM7.42859 12.8572L7.95933 13.3871C8.14287 13.2032 8.21822 12.9375 8.1585 12.6847C8.09878 12.4319 7.91249 12.228 7.66609 12.1457L7.42859 12.8572ZM1.42859 15.1837V14.4337C1.09819 14.4337 0.806705 14.6499 0.710847 14.9661C0.61499 15.2823 0.737339 15.624 1.01212 15.8074L1.42859 15.1837ZM16.387 2.90619L15.8307 3.4092L16.101 3.70807L16.4993 3.64773L16.387 2.90619ZM17.7966 1.76391C17.8593 2.7094 17.7997 3.26558 17.6546 3.67463C17.515 4.06802 17.2707 4.39851 16.8035 4.84625L17.8413 5.92928C18.3843 5.40892 18.8165 4.88586 19.0683 4.17612C19.3145 3.48206 19.361 2.68555 19.2933 1.66468L17.7966 1.76391ZM18.0724 6.22959V5.38776H16.5724V6.22959H18.0724ZM18.0724 5.38776V5.33744H16.5724V5.38776H18.0724ZM9.25002 5.57144V6.42858H10.75V5.57144H9.25002ZM13.7048 0.964294C11.199 0.964294 9.25002 3.13986 9.25002 5.57144H10.75C10.75 3.88983 12.1038 2.46429 13.7048 2.46429V0.964294ZM16.5724 6.22959C16.5724 11.4516 12.184 15.9643 7.00002 15.9643V17.4643C13.0417 17.4643 18.0724 12.2505 18.0724 6.22959H16.5724ZM1.94881 1.97728C2.63773 3.81726 5.20345 7.17858 10 7.17858V5.67858C5.99386 5.67858 3.88724 2.87664 3.35357 1.45131L1.94881 1.97728ZM1.98016 1.3793C0.686912 3.9698 0.45079 6.52839 1.36779 8.72285C2.2848 10.9174 4.29373 12.6013 7.19109 13.5686L7.66609 12.1457C5.06174 11.2763 3.45937 9.83777 2.75181 8.14451C2.04424 6.45122 2.17027 4.35675 3.32222 2.04929L1.98016 1.3793ZM6.89785 12.3272C6.18958 13.0366 4.12038 14.4337 1.42859 14.4337V15.9337C4.60528 15.9337 7.03749 14.3103 7.95933 13.3871L6.89785 12.3272ZM16.9433 2.40318C16.1454 1.52066 14.9896 0.964294 13.7048 0.964294V2.46429C14.5476 2.46429 15.3049 2.82762 15.8307 3.4092L16.9433 2.40318ZM16.4993 3.64773C17.4633 3.50173 18.4005 2.99636 19.1026 2.2159L17.9874 1.21269C17.5085 1.74506 16.882 2.07267 16.2747 2.16465L16.4993 3.64773ZM1.01212 15.8074C3.0084 17.1403 4.93142 17.4643 7.00002 17.4643V15.9643C5.11742 15.9643 3.51658 15.676 1.84506 14.5599L1.01212 15.8074Z" fill="#253D4E"/>
</svg>
